<?xml version="1.0" encoding="UTF-8" standalone="no" ?>
<!DOCTYPE svg PUBLIC "-//W3C//DTD SVG 1.1//EN" "http://www.w3.org/Graphics/SVG/1.1/DTD/svg11.dtd">
<svg xmlns="http://www.w3.org/2000/svg" xmlns:xlink="http://www.w3.org/1999/xlink" version="1.1" width="1080" height="1080" viewBox="0 0 1080 1080" xml:space="preserve">
<desc>Created with Fabric.js 5.2.4</desc>
<defs>
</defs>
<rect x="0" y="0" width="100%" height="100%" fill="transparent"></rect>
<g transform="matrix(1 0 0 1 540 540)" id="084a158a-1042-44eb-824b-1a8f3b397457"  >
</g>
<g transform="matrix(1 0 0 1 540 540)" id="4c12a111-b286-4900-87e5-a59343bf33cb"  >
<rect style="stroke: none; stroke-width: 1; stroke-dasharray: none; stroke-linecap: butt; stroke-dashoffset: 0; stroke-linejoin: miter; stroke-miterlimit: 4; fill: rgb(0,0,0); fill-rule: nonzero; opacity: 1; visibility: hidden;" vector-effect="non-scaling-stroke"  x="-540" y="-540" rx="0" ry="0" width="1080" height="1080" />
</g>
<g transform="matrix(4.22 0 0 4.22 539.66 539.66)"  >
<rect style="stroke: none; stroke-width: 0; stroke-dasharray: none; stroke-linecap: butt; stroke-dashoffset: 0; stroke-linejoin: miter; stroke-miterlimit: 4; fill: none; fill-rule: nonzero; opacity: 1;" vector-effect="non-scaling-stroke"  x="-128" y="-128" rx="0" ry="0" width="256" height="256" />
</g>
<g transform="matrix(4.22 0 0 4.22 156.54 550.11)"  >
<path style="stroke: rgb(0,0,0); stroke-width: 28; stroke-dasharray: none; stroke-linecap: round; stroke-dashoffset: 0; stroke-linejoin: round; stroke-miterlimit: 4; fill: none; fill-rule: nonzero; opacity: 1;" vector-effect="non-scaling-stroke"  transform=" translate(-48, -128)" d="M 80 40 C 16 40 80 128 16 128 C 80 128 16 216 80 216" stroke-linecap="round" />
</g>
<g transform="matrix(4.22 0 0 4.22 926.54 550.11)"  >
<path style="stroke: rgb(0,0,0); stroke-width: 28; stroke-dasharray: none; stroke-linecap: round; stroke-dashoffset: 0; stroke-linejoin: round; stroke-miterlimit: 4; fill: none; fill-rule: nonzero; opacity: 1;" vector-effect="non-scaling-stroke"  transform=" translate(-208, -128)" d="M 176 40 C 240 40 176 128 240 128 C 176 128 240 216 176 216" stroke-linecap="round" />
</g>
<g transform="matrix(1.42 0 0 1.42 535.74 519.81)"  >
<path style="stroke: rgb(255,255,255); stroke-width: 1; stroke-dasharray: none; stroke-linecap: butt; stroke-dashoffset: 0; stroke-linejoin: miter; stroke-miterlimit: 4; fill: rgb(0,0,0); fill-rule: nonzero; opacity: 1;"  transform=" translate(-256, -256)" d="M 452.792 114.479 L 59.207 114.479 C 40.878 114.479 26 129.357 26 147.613 L 26 364.31600000000003 C 26 382.64300000000003 40.878 397.521 59.206 397.521 L 452.86400000000003 397.521 C 471.19000000000005 397.521 486.07000000000005 382.64300000000003 485.999 364.38800000000003 L 485.999 147.613 C 485.999 129.357 471.12 114.479 452.792 114.479 z M 269.296 331.182 L 225.093 331.182 L 225.093 244.93200000000002 L 180.89 300.204 L 136.688 244.93200000000002 L 136.688 331.182 L 92.34 331.182 L 92.34 180.819 L 136.544 180.819 L 180.747 236.09099999999998 L 224.95000000000002 180.819 L 269.15200000000004 180.819 L 269.15200000000004 331.181 L 269.296 331.181 z M 366.542 333.41 L 300.202 256.00100000000003 L 344.405 256.00100000000003 L 344.405 180.81900000000002 L 388.60799999999995 180.81900000000002 L 388.60799999999995 256.00100000000003 L 432.8109999999999 256.00100000000003 L 366.542 333.41 z" stroke-linecap="round" />
</g>
<g transform="matrix(0 0 0 0 0 0)"  >
<g style=""   >
</g>
</g>
<g transform="matrix(0 0 0 0 0 0)"  >
<g style=""   >
</g>
</g>
<g transform="matrix(0 0 0 0 0 0)"  >
<g style=""   >
</g>
</g>
<g transform="matrix(0 0 0 0 0 0)"  >
<g style=""   >
</g>
</g>
<g transform="matrix(0 0 0 0 0 0)"  >
<g style=""   >
</g>
</g>
<g transform="matrix(0 0 0 0 0 0)"  >
<g style=""   >
</g>
</g>
<g transform="matrix(0 0 0 0 0 0)"  >
<g style=""   >
</g>
</g>
<g transform="matrix(0 0 0 0 0 0)"  >
<g style=""   >
</g>
</g>
<g transform="matrix(0 0 0 0 0 0)"  >
<g style=""   >
</g>
</g>
<g transform="matrix(0 0 0 0 0 0)"  >
<g style=""   >
</g>
</g>
<g transform="matrix(0 0 0 0 0 0)"  >
<g style=""   >
</g>
</g>
<g transform="matrix(0 0 0 0 0 0)"  >
<g style=""   >
</g>
</g>
<g transform="matrix(0 0 0 0 0 0)"  >
<g style=""   >
</g>
</g>
<g transform="matrix(0 0 0 0 0 0)"  >
<g style=""   >
</g>
</g>
<g transform="matrix(0 0 0 0 0 0)"  >
<g style=""   >
</g>
</g>
<g transform="matrix(0 0 0 0 0 0)"  >
<g style=""   >
</g>
</g>
<g transform="matrix(0 0 0 0 0 0)"  >
<g style=""   >
</g>
</g>
<g transform="matrix(0 0 0 0 0 0)"  >
<g style=""   >
</g>
</g>
<g transform="matrix(0 0 0 0 0 0)"  >
<g style=""   >
</g>
</g>
</svg>